<?xml version="1.0" encoding="utf-8"?>
<!-- Generator: Adobe Illustrator 18.1.1, SVG Export Plug-In . SVG Version: 6.00 Build 0)  -->
<svg version="1.1" id="Layer_1" xmlns="http://www.w3.org/2000/svg" xmlns:xlink="http://www.w3.org/1999/xlink" x="0px" y="0px"
	 width="1152px" height="1152px" viewBox="0 0 1152 1152" style="enable-background:new 0 0 1152 1152;" xml:space="preserve">
<g>
	<path d="M221.7,675.3L221.7,675.3l921.8,0c0,0,0,0,0,0H221.7z"/>
	<path d="M1143.4,675.3c5.6-32.3,8.6-65.5,8.6-99.3c0-37.1-3.5-73.4-10.3-108.7c-24.8-129.6-93.3-244-189.4-327l-83.8,148.1
		l-12.9,22.7l-9,15.8c36.6,39.7,64.6,87.5,80.9,140.3H224.4C270.8,317.3,410.9,208,576,208c1.8,0,3.7,0,5.5,0l111-196.2
		C654.9,4.1,615.9,0,576,0C295.6,0,61.2,201.5,10.3,467.4C3.5,502.6,0,538.9,0,576c0,33.8,2.9,67.1,8.6,99.3
		c23.8,136.3,95.7,256.3,197.5,341.8c100.1,84.1,229.3,134.9,370,134.9c204.7,0,384.8-107.3,487-268.7H778.2
		C720.1,921.7,650.6,944,576,944c-74.6,0-144.1-22.3-202.2-60.7c-73-48.2-128-121.7-152.2-208v0H1143.4z"/>
</g>
<g>
</g>
<g>
</g>
<g>
</g>
<g>
</g>
<g>
</g>
<g>
</g>
</svg>
