<?xml version="1.0" encoding="utf-8"?>
<!-- Generator: Adobe Illustrator 18.1.1, SVG Export Plug-In . SVG Version: 6.00 Build 0)  -->
<svg version="1.1" id="Layer_1" xmlns="http://www.w3.org/2000/svg" xmlns:xlink="http://www.w3.org/1999/xlink" x="0px" y="0px"
	 width="304.6px" height="304.6px" viewBox="0 0 304.6 304.6" style="enable-background:new 0 0 304.6 304.6;" xml:space="preserve"
	>
<style type="text/css">
	.st0{opacity:0.1;}
</style>
<g class="st0">
	<path d="M58.6,178.6L58.6,178.6l243.7,0c0,0,0,0,0,0H58.6z"/>
	<path d="M302.3,178.6c1.5-8.5,2.3-17.3,2.3-26.3c0-9.8-0.9-19.4-2.7-28.7c-6.6-34.3-24.7-64.5-50.1-86.5l-22.2,39.2l-3.4,6
		l-2.4,4.2c9.7,10.5,17.1,23.1,21.4,37.1H59.3c12.3-39.7,49.3-68.6,93-68.6c0.5,0,1,0,1.4,0l29.4-51.9c-10-2-20.2-3.1-30.8-3.1
		C78.1,0,16.2,53.3,2.7,123.6C0.9,132.9,0,142.5,0,152.3c0,9,0.8,17.7,2.3,26.3c6.3,36,25.3,67.8,52.2,90.4
		c26.5,22.2,60.6,35.7,97.8,35.7c54.1,0,101.7-28.4,128.8-71h-75.3c-15.4,10.1-33.7,16-53.4,16c-19.7,0-38.1-5.9-53.5-16
		c-19.3-12.7-33.8-32.2-40.2-55v0H302.3z"/>
</g>
<g>
</g>
<g>
</g>
<g>
</g>
<g>
</g>
<g>
</g>
<g>
</g>
</svg>
